<?xml version="1.0" standalone="no"?>
<!DOCTYPE svg PUBLIC "-//W3C//DTD SVG 20010904//EN"
 "http://www.w3.org/TR/2001/REC-SVG-20010904/DTD/svg10.dtd">
<svg version="1.0" xmlns="http://www.w3.org/2000/svg"
 width="820.000000pt" height="401.000000pt" viewBox="0 0 820.000000 401.000000"
 preserveAspectRatio="xMidYMid meet">

<g transform="translate(0.000000,401.000000) scale(0.100000,-0.100000)"
fill="#000000" stroke="none">
<path d="M4026 2474 c-18 -13 -18 -14 5 -23 26 -9 35 0 22 23 -7 12 -11 12
-27 0z"/>
<path d="M2840 2306 c0 -19 8 -27 35 -36 56 -18 60 -7 11 27 l-46 33 0 -24z"/>
<path d="M3044 1713 c3 -8 6 -17 6 -19 0 -2 21 -4 47 -4 56 0 48 14 -15 29
-37 8 -43 7 -38 -6z"/>
<path d="M3281 1211 c1 -33 -2 -64 -6 -70 -8 -14 -3 -14 32 0 34 12 155 90
150 96 -3 2 -33 8 -68 13 -35 6 -74 12 -86 15 -21 5 -23 2 -22 -54z"/>
</g>
</svg>
